<svg xmlns="http://www.w3.org/2000/svg" xmlns:xlink="http://www.w3.org/1999/xlink" width="1080" zoomAndPan="magnify" viewBox="0 0 810 809.999993" height="1080" preserveAspectRatio="xMidYMid meet" version="1.0"><defs><g/><clipPath id="c1644df5af"><path d="M 655 232 L 725 232 L 725 355.507812 L 655 355.507812 Z M 655 232 " clip-rule="nonzero"/></clipPath><clipPath id="ae25c5337e"><path d="M 703 160.734375 L 761 160.734375 L 761 288 L 703 288 Z M 703 160.734375 " clip-rule="nonzero"/></clipPath><clipPath id="b542caf300"><path d="M 744 195 L 806.570312 195 L 806.570312 339 L 744 339 Z M 744 195 " clip-rule="nonzero"/></clipPath><clipPath id="df03a3d057"><path d="M 4 200 L 250 200 L 250 391 L 4 391 Z M 4 200 " clip-rule="nonzero"/></clipPath><clipPath id="819284776c"><path d="M -11.78125 229.53125 L 234.46875 178.175781 L 270.664062 351.746094 L 24.417969 403.101562 Z M -11.78125 229.53125 " clip-rule="nonzero"/></clipPath><clipPath id="64d59771a0"><path d="M -11.78125 229.53125 L 234.46875 178.175781 L 270.664062 351.746094 L 24.417969 403.101562 Z M -11.78125 229.53125 " clip-rule="nonzero"/></clipPath></defs><g clip-path="url(#c1644df5af)"><path fill="#363636" d="M 710.554688 232.140625 L 709.730469 232.632812 C 690.75 245.097656 676.058594 257.953125 665.65625 271.203125 C 658.253906 281.03125 655.019531 291.753906 655.953125 303.371094 C 656.585938 308.253906 657.453125 311.824219 658.558594 314.089844 C 661.554688 319.382812 664.726562 323.828125 668.082031 327.429688 C 670.46875 330.03125 673.683594 332.871094 677.730469 335.949219 L 705.144531 355.722656 C 708.777344 358.996094 712.882812 363.597656 717.457031 369.523438 C 723.117188 377.265625 725.460938 386.257812 724.488281 396.503906 C 725.804688 383.871094 723.582031 373.914062 717.824219 366.621094 C 714.257812 361.375 710.167969 356.519531 705.558594 352.054688 C 686.691406 337.859375 675.894531 329.078125 673.167969 325.710938 C 665.902344 317.695312 661.769531 309.585938 660.773438 301.382812 C 660.476562 290.65625 663.351562 281.191406 669.398438 272.992188 C 677.121094 262.734375 690.835938 249.117188 710.554688 232.140625 " fill-opacity="1" fill-rule="nonzero"/></g><g clip-path="url(#ae25c5337e)"><path fill="#363636" d="M 733.066406 160.921875 L 732.8125 161.617188 C 730.441406 167.800781 729.132812 172.457031 728.878906 175.574219 C 728.378906 178.898438 728.65625 182.695312 729.703125 186.96875 C 730.621094 190.785156 733.070312 196.773438 737.054688 204.929688 C 738.71875 208.292969 742.515625 214.464844 748.445312 223.453125 C 749.382812 225.140625 750.117188 226.605469 750.652344 227.851562 C 752.914062 233.375 753.835938 238.304688 753.414062 242.640625 C 748.613281 258.835938 731.882812 273.78125 703.21875 287.46875 C 734.699219 274.640625 753.355469 260.210938 759.191406 244.183594 C 760.996094 239.820312 760.265625 233.996094 756.996094 226.710938 C 755.625 223.792969 754.535156 221.75 753.730469 220.589844 L 743.253906 206.238281 C 741.996094 204.507812 741.109375 203.1875 740.59375 202.277344 C 735.683594 193.824219 732.699219 187.761719 731.628906 184.085938 C 729.589844 177.785156 730.070312 170.0625 733.066406 160.921875 " fill-opacity="1" fill-rule="nonzero"/></g><g clip-path="url(#b542caf300)"><path fill="#363636" d="M 788.199219 195.863281 L 788.757812 196.550781 C 794.378906 204.867188 798.042969 213.230469 799.75 221.636719 C 801.570312 232.09375 801.257812 240.921875 798.808594 248.121094 C 796.515625 255.398438 792.976562 262.105469 788.195312 268.234375 C 784.632812 273.019531 774.230469 283.734375 756.980469 300.375 C 753.96875 303.554688 751.449219 306.898438 749.417969 310.402344 C 746.542969 315.277344 744.867188 319.882812 744.390625 324.21875 C 744.085938 326.953125 744.164062 329.847656 744.625 332.902344 C 744.992188 334.984375 745.609375 336.488281 746.476562 337.417969 C 747.320312 338.402344 747.742188 338.824219 747.746094 338.679688 C 747.8125 338.679688 747.800781 338.402344 747.703125 337.851562 C 748.1875 337.179688 748.652344 336.316406 749.101562 335.257812 C 749.410156 334.351562 749.558594 333.808594 749.542969 333.621094 C 749.546875 330.972656 749.660156 328.855469 749.890625 327.277344 C 750.015625 326.234375 750.265625 325.007812 750.648438 323.605469 C 751.277344 321.183594 752.726562 318.382812 754.988281 315.207031 C 757.269531 312 759.242188 309.613281 760.910156 308.046875 C 774.164062 297.523438 783.816406 288.71875 789.867188 281.636719 C 796.480469 273.300781 801.152344 264.644531 803.882812 255.65625 C 805.449219 250.691406 806.175781 245.851562 806.0625 241.140625 C 805.917969 232.640625 805.210938 226.347656 803.9375 222.257812 C 801.195312 212.203125 795.953125 203.40625 788.199219 195.863281 " fill-opacity="1" fill-rule="nonzero"/></g><g fill="#ef190c" fill-opacity="1"><g transform="translate(75.688209, 491.181664)"><g><path d="M 147.558594 -59.425781 C 139.707031 -46.417969 131.410156 -31.621094 107.863281 -29.824219 C 72.65625 -29.824219 56.285156 -62.789062 56.0625 -94.183594 C 55.613281 -120.871094 67.050781 -135 79.609375 -137.242188 C 81.628906 -137.691406 83.421875 -137.691406 85.214844 -137.691406 C 97.773438 -137.691406 105.621094 -128.945312 105.847656 -111.226562 C 106.070312 -94.632812 112.351562 -83.195312 130.289062 -83.195312 C 143.746094 -83.195312 155.628906 -92.167969 153.613281 -109.433594 C 152.265625 -121.769531 136.570312 -151.144531 86.785156 -151.144531 C 84.09375 -151.144531 81.179688 -151.144531 78.261719 -150.921875 C 36.777344 -148.453125 3.363281 -118.179688 3.363281 -73.777344 C 3.363281 -27.359375 39.691406 3.8125 82.972656 3.8125 C 119.972656 3.8125 152.042969 -19.0625 160.5625 -54.492188 L 160.5625 -54.71875 C 161.910156 -60.324219 158.320312 -63.6875 154.285156 -63.6875 C 151.816406 -63.6875 149.351562 -62.339844 147.558594 -59.425781 Z M 147.558594 -59.425781 "/></g></g></g><g fill="#ef190c" fill-opacity="1"><g transform="translate(239.839806, 491.181664)"><g><path d="M 102.707031 -12.332031 C 101.585938 -12.109375 100.238281 -11.886719 99.117188 -11.886719 C 82.972656 -11.886719 69.519531 -36.777344 61.894531 -65.929688 C 54.042969 -95.753906 50.679688 -130.289062 69.070312 -135.671875 C 70.640625 -136.121094 72.207031 -136.34375 73.777344 -136.34375 C 91.269531 -136.34375 104.949219 -107.191406 111.453125 -81.402344 C 119.078125 -51.351562 120.648438 -16.371094 102.707031 -12.332031 Z M 85.664062 -151.816406 C 41.039062 -151.816406 3.363281 -120.421875 3.363281 -73.777344 C 3.363281 -27.132812 41.039062 4.261719 85.664062 4.261719 C 130.515625 4.261719 168.1875 -27.359375 168.1875 -73.777344 C 168.1875 -120.199219 130.515625 -151.816406 85.664062 -151.816406 Z M 85.664062 -151.816406 "/></g></g></g><g fill="#ef190c" fill-opacity="1"><g transform="translate(411.391678, 491.181664)"><g><path d="M 102.707031 -12.332031 C 101.585938 -12.109375 100.238281 -11.886719 99.117188 -11.886719 C 82.972656 -11.886719 69.519531 -36.777344 61.894531 -65.929688 C 54.042969 -95.753906 50.679688 -130.289062 69.070312 -135.671875 C 70.640625 -136.121094 72.207031 -136.34375 73.777344 -136.34375 C 91.269531 -136.34375 104.949219 -107.191406 111.453125 -81.402344 C 119.078125 -51.351562 120.648438 -16.371094 102.707031 -12.332031 Z M 85.664062 -151.816406 C 41.039062 -151.816406 3.363281 -120.421875 3.363281 -73.777344 C 3.363281 -27.132812 41.039062 4.261719 85.664062 4.261719 C 130.515625 4.261719 168.1875 -27.359375 168.1875 -73.777344 C 168.1875 -120.199219 130.515625 -151.816406 85.664062 -151.816406 Z M 85.664062 -151.816406 "/></g></g></g><g fill="#ef190c" fill-opacity="1"><g transform="translate(582.94355, 491.181664)"><g><path d="M 18.835938 -112.125 L 18.835938 -35.429688 C 18.835938 -18.613281 3.140625 -16.820312 4.484375 -7.847656 C 5.832031 0 38.796875 0.671875 45.296875 0.671875 C 51.800781 0.671875 84.765625 0.449219 85.664062 -7.847656 C 86.335938 -17.042969 71.535156 -17.941406 71.535156 -35.429688 L 71.535156 -51.351562 C 74.003906 -53.597656 76.917969 -56.734375 80.058594 -59.875 C 85.214844 -53.597656 91.496094 -45.296875 96.429688 -38.347656 C 107.863281 -22.425781 98.445312 -16.371094 101.136719 -8.523438 C 104.5 0.449219 133.203125 0.449219 139.707031 0.449219 C 146.4375 0.449219 177.15625 0.222656 176.933594 -10.765625 C 176.484375 -19.957031 168.859375 -19.511719 158.546875 -30.5 C 146.4375 -43.28125 128.496094 -69.964844 113.246094 -93.511719 C 122.664062 -103.378906 130.738281 -111.453125 133.652344 -114.59375 C 151.144531 -132.53125 161.910156 -129.839844 162.132812 -139.257812 C 162.359375 -147.78125 142.847656 -148.230469 137.242188 -148.230469 C 128.945312 -148.230469 114.144531 -147.332031 113.246094 -139.707031 C 111.902344 -130.066406 124.011719 -132.53125 109.660156 -116.386719 C 105.171875 -111.453125 88.128906 -93.960938 71.535156 -77.140625 L 71.535156 -112.125 C 71.535156 -129.394531 86.335938 -130.289062 85.664062 -139.484375 C 84.765625 -148.003906 51.800781 -148.230469 45.296875 -148.230469 C 38.796875 -148.230469 5.832031 -147.332031 4.484375 -139.484375 C 3.140625 -130.738281 18.835938 -128.945312 18.835938 -112.125 Z M 18.835938 -112.125 "/></g></g></g><path stroke-linecap="butt" transform="matrix(0.96245, 0, 0, 0.96245, 3.128526, 382.426671)" fill="none" stroke-linejoin="miter" d="M 301.436609 112.813415 L 304.444071 112.090975 C 304.858054 112.090975 305.069104 112.484664 305.069104 113.28016 C 305.069104 114.075656 303.87586 115.374425 301.489371 117.16835 C 299.102883 118.966334 296.237473 119.867355 292.880967 119.867355 C 289.528519 119.867355 286.90257 118.897337 285.00312 116.961359 C 283.099611 115.025381 282.149886 112.504957 282.149886 109.39197 C 282.149886 102.825068 286.435825 96.310929 295.007701 89.845493 C 303.579578 83.384117 314.12396 78.197157 326.63679 74.292732 C 339.149619 70.384249 351.142941 68.432036 362.616755 68.432036 C 379.415523 68.432036 391.912118 71.16351 400.10654 76.626458 C 408.296903 82.085347 412.392085 89.415276 412.392085 98.608127 C 412.392085 110.361988 404.234191 121.734336 387.922462 132.72517 C 379.346526 138.533104 370.084678 143.164028 360.128801 146.622001 C 371.050638 147.794952 379.764567 151.321922 386.262472 157.198852 C 391.169385 161.622785 393.62487 167.256196 393.62487 174.099087 C 393.62487 180.941977 390.357654 187.906627 383.823221 194.993036 C 377.292847 202.079446 368.599211 207.956376 357.746371 212.623828 C 346.889472 217.287221 335.797171 219.620947 324.457293 219.620947 C 311.392486 219.620947 301.781594 216.751479 295.632734 211.016601 C 292.864732 208.386593 291.48479 206.056926 291.48479 204.015423 C 291.48479 201.977979 292.000239 199.814717 293.039254 197.533753 C 287.990289 206.661666 284.292855 213.537025 281.942895 218.172008 C 280.907938 220.24598 278.813673 221.280936 275.668216 221.280936 C 272.522759 221.280936 270.087567 220.452971 268.358581 218.792982 C 266.629594 217.132992 265.765101 215.266012 265.765101 213.192039 C 265.765101 211.118067 266.077617 209.287615 266.698591 207.696622 C 269.811579 199.538728 280.786178 180.442762 299.622391 150.404666 C 318.462661 120.36657 329.989238 102.963062 334.206179 98.194144 C 336.418145 95.499198 341.430583 94.147666 349.243491 94.147666 C 352.35242 94.147666 353.906884 94.841696 353.906884 96.221638 C 353.906884 97.260654 349.312488 105.037034 340.115579 119.554839 C 330.922728 134.072643 326.117282 141.67856 325.7033 142.368532 C 335.310133 139.604588 345.144251 135.817864 355.205654 131.012418 C 365.262998 126.211031 374.041866 120.764318 381.542258 114.680396 C 389.04265 108.596474 392.792846 103.101057 392.792846 98.194144 C 392.792846 90.105247 384.013978 86.062828 366.456242 86.062828 C 348.066482 86.062828 330.370751 90.933213 313.360933 100.682099 C 309.143992 103.101057 305.929538 105.313023 303.717572 107.317998 C 301.505606 109.322973 300.401652 110.739443 300.401652 111.571467 C 300.401652 112.399432 300.746638 112.813415 301.436609 112.813415 Z M 320.102357 162.381753 C 318.860409 162.381753 317.476408 160.928755 315.954413 158.026818 C 309.387511 168.534672 302.508093 180.219536 295.320218 193.077352 C 298.567141 188.584422 303.303589 186.335928 309.525506 186.335928 C 313.67345 186.335928 315.747422 186.855435 315.747422 187.890392 C 315.747422 188.304375 315.296911 188.685888 314.399949 189.030874 C 311.636006 190.069889 310.252005 191.624353 310.252005 193.698326 C 310.252005 198.674235 315.540431 201.166248 326.117282 201.166248 C 340.428095 201.166248 353.391435 196.18628 365.003244 186.230403 C 371.22516 180.978505 374.338147 176.38005 374.338147 172.439097 C 374.338147 170.02014 371.813665 167.357663 366.7647 164.455725 C 360.891828 161.204744 351.938437 159.581282 339.908588 159.581282 C 331.543702 159.581282 326.186279 160.048027 323.836319 160.981518 C 321.486358 161.915008 320.240352 162.381753 320.102357 162.381753 Z M 464.959768 139.982043 C 467.03374 139.982043 469.160475 140.915534 471.335913 142.782514 C 473.51541 144.649495 474.60313 147.502729 474.60313 151.338156 C 474.60313 155.173584 473.255657 160.153552 470.56071 166.269943 C 467.861706 172.390393 464.164272 178.61231 459.464351 184.935692 C 454.76443 191.263133 449.593705 197.205002 443.960294 202.773475 C 438.326882 208.33789 432.24296 212.899816 425.712587 216.459256 C 419.178154 220.018695 413.248461 221.800444 407.927566 221.800444 C 402.602612 221.800444 398.332908 220.12422 395.118455 216.771772 C 391.904001 213.419324 390.296774 208.751872 390.296774 202.773475 C 390.296774 196.79102 391.766007 190.171355 394.704472 182.914483 C 397.642937 175.653551 401.429661 169.244937 406.060585 163.676464 C 410.691509 158.112049 415.703946 153.119905 421.097897 148.691914 C 432.36472 139.637058 442.251601 135.111659 450.75448 135.111659 C 454.557439 135.111659 457.422848 136.04109 459.358826 137.908071 C 460.052856 138.533104 460.397841 139.085081 460.397841 139.56806 L 460.397841 140.189035 C 461.363801 140.05104 462.885796 139.982043 464.959768 139.982043 Z M 454.484383 153.773349 L 453.761943 153.773349 C 451.338926 153.773349 450.129448 152.011893 450.129448 148.484923 C 445.084541 150.144912 439.796115 153.050908 434.26417 157.198852 C 428.736284 161.346796 423.792843 166.253709 419.437908 171.923648 C 410.590043 183.259468 406.093054 192.833832 405.95506 200.646741 C 405.95506 204.518696 407.375589 206.454674 410.208529 206.454674 C 413.04147 206.454674 417.258411 204.587694 422.859353 200.853732 C 428.460295 197.119771 434.004416 191.798876 439.503892 184.88293 C 444.999309 177.971042 449.110725 171.972352 451.842199 166.890918 C 454.573673 161.809483 455.937381 158.355569 455.937381 156.521057 C 455.937381 154.690604 455.454401 153.773349 454.484383 153.773349 Z M 542.727633 139.982043 C 544.801605 139.982043 546.928339 140.915534 549.103778 142.782514 C 551.283275 144.649495 552.370994 147.502729 552.370994 151.338156 C 552.370994 155.173584 551.023521 160.153552 548.328575 166.269943 C 545.62957 172.390393 541.932137 178.61231 537.232216 184.935692 C 532.532295 191.263133 527.36157 197.205002 521.728158 202.773475 C 516.094747 208.33789 510.010825 212.899816 503.480451 216.459256 C 496.946019 220.018695 491.016325 221.800444 485.69543 221.800444 C 480.370477 221.800444 476.104832 220.12422 472.890378 216.771772 C 469.671865 213.419324 468.064638 208.751872 468.064638 202.773475 C 468.064638 196.79102 469.533871 190.171355 472.472336 182.914483 C 475.410802 175.653551 479.197526 169.244937 483.82845 163.676464 C 488.459374 158.112049 493.471811 153.119905 498.865762 148.691914 C 510.132585 139.637058 520.019465 135.111659 528.522345 135.111659 C 532.325303 135.111659 535.190713 136.04109 537.126691 137.908071 C 537.82072 138.533104 538.165706 139.085081 538.165706 139.56806 L 538.165706 140.189035 C 539.131666 140.05104 540.653661 139.982043 542.727633 139.982043 Z M 532.256306 153.773349 L 531.529807 153.773349 C 529.110849 153.773349 527.901371 152.011893 527.901371 148.484923 C 522.852405 150.144912 517.56398 153.050908 512.032034 157.198852 C 506.504148 161.346796 501.560708 166.253709 497.205772 171.923648 C 488.357907 183.259468 483.864977 192.833832 483.722925 200.646741 C 483.722925 204.518696 485.143453 206.454674 487.976394 206.454674 C 490.809334 206.454674 495.026275 204.587694 500.627217 200.853732 C 506.22816 197.119771 511.776339 191.798876 517.271756 184.88293 C 522.767174 177.971042 526.87859 171.972352 529.610064 166.890918 C 532.341538 161.809483 533.705246 158.355569 533.705246 156.521057 C 533.705246 154.690604 533.222266 153.773349 532.256306 153.773349 Z M 551.745961 221.487928 L 545.110063 220.038988 C 543.105088 219.827938 541.445098 218.549462 540.130094 216.199502 C 539.785109 215.578528 539.561883 215.197014 539.456358 215.05902 C 539.354892 214.921026 539.302129 214.746504 539.302129 214.539513 C 539.302129 214.332521 539.371126 214.040298 539.50912 213.658785 C 539.647115 213.28133 539.854106 212.761822 540.130094 212.10432 C 540.410141 211.446818 540.649602 210.773082 540.856593 210.083111 C 542.309591 205.17214 554.440908 182.082458 577.2546 140.814067 C 600.068293 99.541617 612.008852 78.266154 613.080337 76.987678 C 614.151821 75.709202 614.947318 74.775712 615.466825 74.187207 C 615.986333 73.598702 616.574838 73.099488 617.228281 72.685505 C 617.885783 72.271523 618.368763 71.991476 618.681279 71.853481 C 618.993795 71.715487 619.614769 71.492261 620.54826 71.179745 C 621.48175 70.871287 622.44771 70.542536 623.450197 70.197551 C 624.452685 69.848506 625.507935 69.381761 626.615947 68.797315 C 627.719901 68.20881 628.482928 67.794828 628.896911 67.551308 C 629.310893 67.307789 629.846636 67.190088 630.504137 67.190088 C 631.161639 67.190088 631.782613 67.498546 632.371118 68.123579 C 632.955564 68.744553 633.251846 69.540049 633.251846 70.506008 L 633.251846 71.232507 C 632.90686 72.547511 623.900708 88.932296 606.237447 120.386863 C 588.574186 151.837371 578.947059 169.05418 577.360125 172.025115 C 582.750017 169.882145 590.70092 164.593719 601.208775 156.159837 C 611.716629 147.725955 617.02129 142.125012 617.126815 139.361069 C 617.228281 136.597126 618.182065 134.592151 619.97599 133.346144 C 621.773973 132.104196 623.726186 131.479164 625.836686 131.479164 C 627.943127 131.479164 629.741111 132.189428 631.230636 133.605898 C 632.716104 135.022368 633.422309 137.33986 633.353312 140.554313 C 633.284315 143.768767 631.486332 147.847714 627.96342 152.791154 C 624.43645 157.734595 620.219509 162.312756 615.312596 166.529697 C 604.735745 175.515557 595.920349 181.461484 588.870467 184.363422 C 594.467351 199.506259 600.896258 207.075648 608.15719 207.075648 C 612.098143 206.523671 616.936058 203.309218 622.674994 197.432287 C 624.817964 195.289318 626.891936 193.126055 628.896911 190.950617 C 630.901885 188.77112 632.127599 187.476409 632.578109 187.062427 C 633.024561 186.648444 633.665829 186.437394 634.493794 186.437394 C 635.808798 186.437394 636.604294 187.439881 636.880282 189.444856 C 637.156271 191.449831 637.294265 193.523803 637.294265 195.666773 C 637.294265 197.809742 637.087274 199.299268 636.673291 200.127233 C 634.668316 203.999189 630.276853 208.715344 623.50296 214.283817 C 616.729067 219.848232 610.300159 222.628409 604.216237 222.628409 C 599.861302 222.628409 596.403329 221.800444 593.846377 220.140455 C 591.289425 218.480465 589.28445 217.100523 587.831452 215.992511 C 586.378454 214.888557 584.892987 213.382796 583.37505 211.483346 C 581.853055 209.579838 580.590814 208.009139 579.588326 206.763132 C 578.585839 205.521184 577.445357 203.792197 576.166881 201.580231 C 574.888405 199.368265 573.971149 197.793507 573.419172 196.860017 C 572.867196 195.926526 572.051406 194.40859 570.979922 192.29809 C 569.908437 190.191649 569.303698 189.030874 569.165703 188.823882 C 567.923755 191.380834 566.539754 194.148836 565.017759 197.119771 C 563.499823 200.090705 562.115822 202.858707 560.869815 205.415659 C 559.627867 207.972611 558.487385 210.306337 557.44837 212.416837 C 556.413413 214.523278 555.565155 216.268499 554.907653 217.6525 C 554.250151 219.036501 553.888931 219.758941 553.819933 219.827938 C 553.336954 220.935951 552.642924 221.487928 551.745961 221.487928 Z M 551.745961 221.487928 " stroke="#363636" stroke-width="19.910063" stroke-opacity="1" stroke-miterlimit="4"/><g fill="#ffdf00" fill-opacity="1"><g transform="translate(236.958688, 593.203151)"><g><path d="M 56.28125 -102.203125 L 59.1875 -102.890625 C 59.582031 -102.890625 59.78125 -102.503906 59.78125 -101.734375 C 59.78125 -100.972656 58.628906 -99.726562 56.328125 -98 C 54.035156 -96.269531 51.273438 -95.40625 48.046875 -95.40625 C 44.828125 -95.40625 42.300781 -96.335938 40.46875 -98.203125 C 38.632812 -100.066406 37.71875 -102.492188 37.71875 -105.484375 C 37.71875 -111.804688 41.84375 -118.078125 50.09375 -124.296875 C 58.34375 -130.515625 68.488281 -135.503906 80.53125 -139.265625 C 92.582031 -143.023438 104.128906 -144.90625 115.171875 -144.90625 C 131.335938 -144.90625 143.363281 -142.273438 151.25 -137.015625 C 159.132812 -131.765625 163.078125 -124.71875 163.078125 -115.875 C 163.078125 -104.5625 155.222656 -93.613281 139.515625 -83.03125 C 131.265625 -77.445312 122.351562 -72.988281 112.78125 -69.65625 C 123.289062 -68.53125 131.671875 -65.140625 137.921875 -59.484375 C 142.648438 -55.222656 145.015625 -49.796875 145.015625 -43.203125 C 145.015625 -36.617188 141.867188 -29.914062 135.578125 -23.09375 C 129.285156 -16.28125 120.914062 -10.628906 110.46875 -6.140625 C 100.03125 -1.648438 89.351562 0.59375 78.4375 0.59375 C 65.863281 0.59375 56.617188 -2.164062 50.703125 -7.6875 C 48.035156 -10.21875 46.703125 -12.460938 46.703125 -14.421875 C 46.703125 -16.378906 47.203125 -18.457031 48.203125 -20.65625 C 43.347656 -11.875 39.789062 -5.253906 37.53125 -0.796875 C 36.53125 1.203125 34.515625 2.203125 31.484375 2.203125 C 28.460938 2.203125 26.117188 1.40625 24.453125 -0.1875 C 22.785156 -1.789062 21.953125 -3.585938 21.953125 -5.578125 C 21.953125 -7.578125 22.253906 -9.34375 22.859375 -10.875 C 25.847656 -18.726562 36.40625 -37.109375 54.53125 -66.015625 C 72.664062 -94.921875 83.765625 -111.671875 87.828125 -116.265625 C 89.953125 -118.859375 94.773438 -120.15625 102.296875 -120.15625 C 105.285156 -120.15625 106.78125 -119.488281 106.78125 -118.15625 C 106.78125 -117.164062 102.351562 -109.679688 93.5 -95.703125 C 84.65625 -81.734375 80.035156 -74.414062 79.640625 -73.75 C 88.890625 -76.414062 98.351562 -80.054688 108.03125 -84.671875 C 117.707031 -89.296875 126.15625 -94.535156 133.375 -100.390625 C 140.601562 -106.253906 144.21875 -111.546875 144.21875 -116.265625 C 144.21875 -124.046875 135.765625 -127.9375 118.859375 -127.9375 C 101.160156 -127.9375 84.128906 -123.25 67.765625 -113.875 C 63.703125 -111.539062 60.609375 -109.410156 58.484375 -107.484375 C 56.359375 -105.554688 55.296875 -104.191406 55.296875 -103.390625 C 55.296875 -102.597656 55.625 -102.203125 56.28125 -102.203125 Z M 74.25 -54.484375 C 73.050781 -54.484375 71.722656 -55.882812 70.265625 -58.6875 C 63.941406 -48.570312 57.320312 -37.328125 50.40625 -24.953125 C 53.53125 -29.273438 58.085938 -31.4375 64.078125 -31.4375 C 68.066406 -31.4375 70.0625 -30.9375 70.0625 -29.9375 C 70.0625 -29.539062 69.628906 -29.175781 68.765625 -28.84375 C 66.097656 -27.84375 64.765625 -26.34375 64.765625 -24.34375 C 64.765625 -19.5625 69.859375 -17.171875 80.046875 -17.171875 C 93.816406 -17.171875 106.289062 -21.957031 117.46875 -31.53125 C 123.457031 -36.59375 126.453125 -41.019531 126.453125 -44.8125 C 126.453125 -47.132812 124.019531 -49.695312 119.15625 -52.5 C 113.5 -55.625 104.882812 -57.1875 93.3125 -57.1875 C 85.257812 -57.1875 80.101562 -56.734375 77.84375 -55.828125 C 75.582031 -54.929688 74.382812 -54.484375 74.25 -54.484375 Z M 74.25 -54.484375 "/></g></g></g><g fill="#ffdf00" fill-opacity="1"><g transform="translate(376.675143, 593.203151)"><g><path d="M 73.953125 -76.046875 C 75.953125 -76.046875 78 -75.144531 80.09375 -73.34375 C 82.1875 -71.550781 83.234375 -68.804688 83.234375 -65.109375 C 83.234375 -61.421875 81.9375 -56.632812 79.34375 -50.75 C 76.75 -44.863281 73.1875 -38.875 68.65625 -32.78125 C 64.132812 -26.695312 59.160156 -20.972656 53.734375 -15.609375 C 48.316406 -10.253906 42.460938 -5.863281 36.171875 -2.4375 C 29.890625 0.976562 24.1875 2.6875 19.0625 2.6875 C 13.9375 2.6875 9.828125 1.078125 6.734375 -2.140625 C 3.640625 -5.367188 2.09375 -9.859375 2.09375 -15.609375 C 2.09375 -21.367188 3.503906 -27.738281 6.328125 -34.71875 C 9.160156 -41.707031 12.804688 -47.878906 17.265625 -53.234375 C 21.722656 -58.597656 26.546875 -63.410156 31.734375 -67.671875 C 42.578125 -76.378906 52.09375 -80.734375 60.28125 -80.734375 C 63.9375 -80.734375 66.695312 -79.835938 68.5625 -78.046875 C 69.226562 -77.441406 69.5625 -76.910156 69.5625 -76.453125 L 69.5625 -75.84375 C 70.488281 -75.976562 71.953125 -76.046875 73.953125 -76.046875 Z M 63.875 -62.78125 L 63.171875 -62.78125 C 60.847656 -62.78125 59.6875 -64.472656 59.6875 -67.859375 C 54.820312 -66.265625 49.726562 -63.472656 44.40625 -59.484375 C 39.082031 -55.492188 34.328125 -50.769531 30.140625 -45.3125 C 21.617188 -34.394531 17.296875 -25.179688 17.171875 -17.671875 C 17.171875 -13.941406 18.53125 -12.078125 21.25 -12.078125 C 23.976562 -12.078125 28.035156 -13.875 33.421875 -17.46875 C 38.816406 -21.0625 44.160156 -26.179688 49.453125 -32.828125 C 54.742188 -39.484375 58.703125 -45.253906 61.328125 -50.140625 C 63.953125 -55.035156 65.265625 -58.363281 65.265625 -60.125 C 65.265625 -61.894531 64.800781 -62.78125 63.875 -62.78125 Z M 63.875 -62.78125 "/></g></g></g><g fill="#ffdf00" fill-opacity="1"><g transform="translate(451.523243, 593.203151)"><g><path d="M 73.953125 -76.046875 C 75.953125 -76.046875 78 -75.144531 80.09375 -73.34375 C 82.1875 -71.550781 83.234375 -68.804688 83.234375 -65.109375 C 83.234375 -61.421875 81.9375 -56.632812 79.34375 -50.75 C 76.75 -44.863281 73.1875 -38.875 68.65625 -32.78125 C 64.132812 -26.695312 59.160156 -20.972656 53.734375 -15.609375 C 48.316406 -10.253906 42.460938 -5.863281 36.171875 -2.4375 C 29.890625 0.976562 24.1875 2.6875 19.0625 2.6875 C 13.9375 2.6875 9.828125 1.078125 6.734375 -2.140625 C 3.640625 -5.367188 2.09375 -9.859375 2.09375 -15.609375 C 2.09375 -21.367188 3.503906 -27.738281 6.328125 -34.71875 C 9.160156 -41.707031 12.804688 -47.878906 17.265625 -53.234375 C 21.722656 -58.597656 26.546875 -63.410156 31.734375 -67.671875 C 42.578125 -76.378906 52.09375 -80.734375 60.28125 -80.734375 C 63.9375 -80.734375 66.695312 -79.835938 68.5625 -78.046875 C 69.226562 -77.441406 69.5625 -76.910156 69.5625 -76.453125 L 69.5625 -75.84375 C 70.488281 -75.976562 71.953125 -76.046875 73.953125 -76.046875 Z M 63.875 -62.78125 L 63.171875 -62.78125 C 60.847656 -62.78125 59.6875 -64.472656 59.6875 -67.859375 C 54.820312 -66.265625 49.726562 -63.472656 44.40625 -59.484375 C 39.082031 -55.492188 34.328125 -50.769531 30.140625 -45.3125 C 21.617188 -34.394531 17.296875 -25.179688 17.171875 -17.671875 C 17.171875 -13.941406 18.53125 -12.078125 21.25 -12.078125 C 23.976562 -12.078125 28.035156 -13.875 33.421875 -17.46875 C 38.816406 -21.0625 44.160156 -26.179688 49.453125 -32.828125 C 54.742188 -39.484375 58.703125 -45.253906 61.328125 -50.140625 C 63.953125 -55.035156 65.265625 -58.363281 65.265625 -60.125 C 65.265625 -61.894531 64.800781 -62.78125 63.875 -62.78125 Z M 63.875 -62.78125 "/></g></g></g><g fill="#ffdf00" fill-opacity="1"><g transform="translate(526.371344, 593.203151)"><g><path d="M 7.78125 2.390625 L 1.390625 1 C -0.535156 0.800781 -2.128906 -0.425781 -3.390625 -2.6875 C -3.722656 -3.289062 -3.9375 -3.65625 -4.03125 -3.78125 C -4.132812 -3.914062 -4.1875 -4.082031 -4.1875 -4.28125 C -4.1875 -4.488281 -4.117188 -4.773438 -3.984375 -5.140625 C -3.859375 -5.503906 -3.660156 -6 -3.390625 -6.625 C -3.128906 -7.257812 -2.894531 -7.910156 -2.6875 -8.578125 C -1.289062 -13.304688 10.378906 -35.53125 32.328125 -75.25 C 54.285156 -114.96875 65.78125 -135.441406 66.8125 -136.671875 C 67.84375 -137.898438 68.609375 -138.796875 69.109375 -139.359375 C 69.609375 -139.929688 70.171875 -140.414062 70.796875 -140.8125 C 71.429688 -141.21875 71.898438 -141.484375 72.203125 -141.609375 C 72.503906 -141.742188 73.101562 -141.960938 74 -142.265625 C 74.894531 -142.566406 75.828125 -142.882812 76.796875 -143.21875 C 77.765625 -143.550781 78.78125 -144 79.84375 -144.5625 C 80.90625 -145.125 81.632812 -145.519531 82.03125 -145.75 C 82.4375 -145.988281 82.953125 -146.109375 83.578125 -146.109375 C 84.210938 -146.109375 84.8125 -145.804688 85.375 -145.203125 C 85.945312 -144.609375 86.234375 -143.84375 86.234375 -142.90625 L 86.234375 -142.21875 C 85.898438 -140.945312 77.234375 -125.175781 60.234375 -94.90625 C 43.234375 -64.632812 33.96875 -48.066406 32.4375 -45.203125 C 37.625 -47.265625 45.273438 -52.351562 55.390625 -60.46875 C 65.503906 -68.59375 70.609375 -73.984375 70.703125 -76.640625 C 70.804688 -79.304688 71.722656 -81.238281 73.453125 -82.4375 C 75.179688 -83.632812 77.0625 -84.234375 79.09375 -84.234375 C 81.125 -84.234375 82.851562 -83.550781 84.28125 -82.1875 C 85.707031 -80.820312 86.390625 -78.59375 86.328125 -75.5 C 86.265625 -72.40625 84.535156 -68.476562 81.140625 -63.71875 C 77.742188 -58.96875 73.6875 -54.5625 68.96875 -50.5 C 58.78125 -41.851562 50.296875 -36.128906 43.515625 -33.328125 C 48.898438 -18.765625 55.085938 -11.484375 62.078125 -11.484375 C 65.867188 -12.015625 70.523438 -15.109375 76.046875 -20.765625 C 78.109375 -22.828125 80.101562 -24.90625 82.03125 -27 C 83.96875 -29.09375 85.148438 -30.335938 85.578125 -30.734375 C 86.015625 -31.140625 86.628906 -31.34375 87.421875 -31.34375 C 88.691406 -31.34375 89.457031 -30.375 89.71875 -28.4375 C 89.988281 -26.507812 90.125 -24.515625 90.125 -22.453125 C 90.125 -20.390625 89.921875 -18.957031 89.515625 -18.15625 C 87.585938 -14.4375 83.363281 -9.894531 76.84375 -4.53125 C 70.320312 0.820312 64.132812 3.5 58.28125 3.5 C 54.09375 3.5 50.765625 2.695312 48.296875 1.09375 C 45.835938 -0.5 43.910156 -1.828125 42.515625 -2.890625 C 41.117188 -3.953125 39.6875 -5.398438 38.21875 -7.234375 C 36.757812 -9.066406 35.546875 -10.582031 34.578125 -11.78125 C 33.617188 -12.976562 32.519531 -14.640625 31.28125 -16.765625 C 30.050781 -18.890625 29.171875 -20.398438 28.640625 -21.296875 C 28.109375 -22.203125 27.328125 -23.671875 26.296875 -25.703125 C 25.265625 -27.734375 24.679688 -28.847656 24.546875 -29.046875 C 23.347656 -26.578125 22.015625 -23.910156 20.546875 -21.046875 C 19.085938 -18.191406 17.757812 -15.53125 16.5625 -13.0625 C 15.363281 -10.601562 14.265625 -8.359375 13.265625 -6.328125 C 12.273438 -4.304688 11.460938 -2.628906 10.828125 -1.296875 C 10.191406 0.0351562 9.84375 0.734375 9.78125 0.796875 C 9.3125 1.859375 8.644531 2.390625 7.78125 2.390625 Z M 7.78125 2.390625 "/></g></g></g><g clip-path="url(#df03a3d057)"><g clip-path="url(#819284776c)"><g clip-path="url(#64d59771a0)"><path fill="#363636" d="M 247.195312 243.886719 C 243.066406 228.859375 228.613281 217.574219 213.160156 216.734375 C 203.234375 216.175781 192.730469 219.472656 185.125 225.960938 C 184.472656 224.691406 183.757812 223.449219 182.984375 222.253906 C 173.765625 207.757812 156.046875 200.390625 139.238281 200.53125 C 135.921875 200.535156 132.621094 200.789062 129.355469 201.246094 C 119.84375 202.101562 112.144531 207.257812 105.351562 213.386719 C 87.644531 229.292969 75.226562 252.695312 51.511719 260.242188 C 51.097656 260.359375 50.808594 260.75 50.855469 261.199219 C 50.902344 261.683594 51.335938 262.039062 51.828125 261.984375 C 56.027344 261.652344 60.152344 260.640625 64.082031 259.109375 C 75.800781 254.496094 85.554688 245.695312 94.371094 237.175781 C 104.730469 227.652344 116.28125 212.769531 130.261719 211.324219 C 147.398438 208.609375 166.339844 212.507812 178.324219 225.816406 C 179.429688 227.023438 180.472656 228.292969 181.441406 229.628906 C 179.554688 231.824219 177.960938 234.285156 176.75 236.984375 C 175.320312 240.359375 174.761719 244.214844 175.578125 247.726562 C 175.667969 248.101562 175.996094 248.394531 176.402344 248.410156 C 176.898438 248.441406 177.324219 248.058594 177.347656 247.558594 C 177.53125 244.359375 178.6875 241.4375 180.402344 238.90625 C 181.585938 237.257812 182.929688 235.738281 184.421875 234.363281 C 185.402344 233.453125 186.449219 232.605469 187.542969 231.824219 C 197.054688 224.988281 210.355469 222.96875 221.035156 227.195312 C 228.464844 230.1875 234.710938 236.222656 237.574219 243.710938 C 238.871094 247.261719 239.398438 251.035156 239.785156 254.765625 C 240.878906 265.953125 237.585938 277.507812 228.804688 284.664062 C 223.539062 289.042969 217.339844 292.320312 210.757812 294.253906 C 198.40625 298.191406 187.507812 295.464844 175.90625 293.398438 C 183.292969 288.621094 189.777344 280.683594 188.089844 271.574219 C 187.902344 270.617188 186.488281 270.636719 186.320312 271.59375 C 185.128906 277.46875 181.53125 281.824219 176.984375 285.4375 C 173.886719 287.929688 170.410156 289.832031 167.140625 292.105469 C 165.652344 291.945312 164.144531 291.824219 162.613281 291.75 C 158.949219 291.597656 155.3125 291.722656 151.722656 292.082031 C 151.71875 292.082031 151.71875 292.082031 151.714844 292.082031 C 157.992188 285.203125 161.921875 275.640625 161.925781 266.945312 C 162.003906 262.414062 161.230469 257.566406 158.503906 253.824219 C 157.894531 252.980469 156.566406 253.742188 156.957031 254.683594 C 158.375 258.5 158.277344 262.648438 157.609375 266.605469 C 155.992188 277.410156 149.476562 286.921875 140.84375 293.371094 C 140.589844 293.582031 140.320312 293.78125 140.058594 293.984375 C 136.09375 294.878906 132.171875 295.996094 128.292969 297.269531 C 128.488281 296.9375 128.679688 296.605469 128.867188 296.265625 C 132.1875 290.242188 133.640625 282.8125 131.902344 276.160156 C 131.804688 275.785156 131.46875 275.5 131.0625 275.488281 C 130.558594 275.476562 130.144531 275.882812 130.144531 276.386719 C 130.09375 278.40625 129.835938 280.375 129.40625 282.28125 C 128.0625 287.886719 125.011719 293.011719 120.921875 297.023438 C 110.519531 307.324219 92.113281 309.5625 78.574219 305.363281 C 71.199219 302.828125 64.859375 297.539062 58.210938 293.136719 C 57.390625 292.601562 56.445312 293.574219 56.957031 294.386719 C 59.261719 297.933594 61.855469 301.28125 64.902344 304.382812 C 71.191406 310.949219 78.578125 314.273438 86.921875 315.195312 C 84.332031 316.683594 81.824219 318.308594 79.453125 320.117188 C 73.140625 324.820312 67.273438 330.984375 59.65625 332.800781 C 43.3125 338.679688 22.007812 317.933594 15.484375 304.179688 C 9.777344 292.507812 12.359375 277.425781 21.953125 268.496094 C 34.058594 257.0625 51.554688 253.734375 65.425781 244.328125 C 71.898438 240.199219 76.898438 234.144531 82.261719 228.835938 C 83.03125 228.074219 82.015625 226.851562 81.113281 227.492188 C 75.144531 231.996094 69.863281 237.296875 63.25 240.75 C 53.515625 246.027344 42.363281 248.945312 32.101562 253.574219 C 24.859375 256.78125 17.664062 261.21875 12.5625 267.5 C 3.738281 278.074219 1.566406 293.496094 6.859375 306.25 C 12.082031 319.140625 25.039062 332.511719 37.355469 338.945312 C 44.84375 342.902344 54.167969 344.851562 62.554688 341.953125 C 64.832031 341.410156 66.980469 340.582031 68.984375 339.597656 C 72.628906 349.757812 76.054688 360.011719 79.046875 370.363281 C 80.867188 376.554688 82.613281 384.070312 83.824219 390.417969 C 83.824219 390.417969 90.808594 385.1875 90.808594 385.1875 C 97.59375 380.179688 105.671875 376.246094 113.53125 372.824219 C 135.175781 363.730469 167.960938 353.625 191.316406 357.347656 C 191.765625 357.4375 192.214844 357.164062 192.339844 356.714844 C 192.46875 356.242188 192.191406 355.753906 191.722656 355.625 C 167.992188 349.625 133.507812 356.984375 110.339844 364.363281 C 103.695312 366.585938 97.238281 368.964844 90.980469 372.078125 C 86.851562 359.398438 81.84375 347.085938 76.648438 334.816406 C 80.9375 331.660156 84.710938 328.273438 89.234375 325.421875 C 94.652344 322.003906 100.605469 319.40625 106.5625 316.785156 C 115.578125 312.828125 124.808594 308.941406 134.144531 306.148438 C 144.847656 302.953125 155.792969 301.164062 166.851562 302.390625 C 173.320312 303.128906 179.617188 304.671875 186.109375 305.621094 C 186.109375 305.621094 186.109375 305.621094 186.113281 305.621094 C 187.226562 316.070312 189.445312 326.574219 191.304688 336.917969 C 180.800781 335.675781 170.179688 336.023438 159.707031 337.308594 C 146.886719 339.03125 133.972656 342.503906 123.023438 349.542969 C 122.652344 349.785156 122.511719 350.273438 122.714844 350.679688 C 122.929688 351.117188 123.460938 351.296875 123.902344 351.082031 C 129.515625 348.300781 135.539062 346.496094 141.640625 345.3125 C 156.839844 342.484375 172.640625 343.058594 187.730469 346.117188 C 190.703125 346.742188 193.621094 347.515625 196.363281 348.4375 C 196.363281 348.4375 204.277344 350.359375 204.277344 350.359375 C 203.925781 348.242188 202.953125 341.746094 202.558594 339.726562 C 200.5 328.976562 197.664062 317.484375 196.074219 306.449219 C 210.238281 306.519531 224.414062 301.375 235.164062 292.117188 C 249.296875 280.125 251.777344 260.988281 247.195312 243.886719 Z M 247.195312 243.886719 " fill-opacity="1" fill-rule="nonzero"/></g></g></g></svg>